<svg xmlns="http://www.w3.org/2000/svg" aria-hidden="true" style="position:absolute;width:0;height:0;overflow:hidden"><defs><symbol id="icon-person" viewBox="0 0 32 32"><path d="M16 16a5.3 5.3 0 1 0 0-10.7A5.3 5.3 0 1 0 16 16zm0 2.7c-3.6 0-10.7 1.7-10.7 5.3v1.4c0 .7.6 1.3 1.5 1.3h18.4c1 0 1.5-.6 1.5-1.5V24c0-3.6-7.1-5.3-10.7-5.3z"/></symbol><symbol id="icon-email" viewBox="0 0 24 32"><path d="M20 8H4a2 2 0 0 0-2 2v12c0 1.1.9 2 2 2h16a2 2 0 0 0 2-2V10a2 2 0 0 0-2-2zm-.4 4.3-7 4.4a1 1 0 0 1-1.1 0l-7.1-4.4a.8.8 0 1 1 .9-1.4L12 15l6.7-4.2a.8.8 0 1 1 .9 1.4z"/></symbol><symbol id="icon-phone" viewBox="0 0 24 32"><path d="m19.6 18.5-2.4-.3a2 2 0 0 0-1.6.6l-1.8 1.7c-2.7-1.4-5-3.6-6.3-6.3l1.8-1.8c.4-.4.6-1 .5-1.6l-.3-2.4a2 2 0 0 0-1.9-1.7H5.9c-1 0-2 .9-1.9 2 .5 8.2 7.1 14.8 15.3 15.3 1.1 0 2-.8 2-2v-1.6a2 2 0 0 0-1.7-2z"/></symbol><symbol id="icon-close" viewBox="0 0 32 32"><path fill="#e7e9fc" d="M32 16a16 16 0 1 1-32 0 16 16 0 0 1 32 0z" style="fill:var(--color3, #e7e9fc)"/><path fill="none" stroke="#000" stroke-width="1.3" d="M31.3 16A15.3 15.3 0 1 1 .7 16a15.3 15.3 0 0 1 30.6 0z" style="stroke:var(--color2, #000)"/><path fill="#2e2f42" d="m21.3 11.7-1-1-4.3 4.2-4.3-4.2-1 1 4.2 4.3-4.2 4.3 1 1 4.3-4.2 4.3 4.2 1-1-4.2-4.3 4.2-4.3z" style="fill:var(--color4, #2e2f42)"/></symbol></defs></svg>