<svg xmlns="http://www.w3.org/2000/svg" aria-hidden="true" style="position:absolute;width:0;height:0;overflow:hidden"><defs><symbol id="icon-astronaut-1" viewBox="0 0 32 32"><path fill="#4d5ae5" d="M32 4.5c0-.2-.3-.3-.5-.3l-1.9-.3-.8-1.7c-.2-.4-.8-.4-1 0L27 3.9l-2 .3a.5.5 0 0 0-.2.9L26 6.4l-.3 2c0 .1 0 .3.2.4.2.2.4.2.6 0l1.7-.8 1.7.9a.5.5 0 0 0 .8-.6l-.3-1.9 1.3-1.3c.2-.2.2-.4.2-.6zM29.5 6c-.1 0-.2.2-.1.4l.1 1.1-1-.5a.5.5 0 0 0-.4 0l-1 .5.1-1-.1-.5-.8-.8 1.1-.2c.2 0 .3-.1.4-.3l.5-1 .5 1c0 .2.2.3.4.3l1.1.2-.8.8zM26.1 20.5h-1v1h1v-1zM26.1 22.7h-1v1h1v-1zM27.2 21.6h-1v1h1v-1zM25 21.6h-1v1h1v-1zM22.4 26.4h-1v1h1v-1zM22.4 28.5h-1v1h1v-1zM23.5 27.5h-1.1v1h1v-1zM21.3 27.5h-1v1h1v-1zM16 24.3h-1v1h1v-1zM16 26.4h-1v1h1v-1zM17 25.3h-1v1h1v-1zM15 25.3h-1.1v1h1v-1zM5.9 6.1H4.8v1h1v-1zM5.9 8.3H4.8v1h1v-1zM7 7.2H5.8v1h1v-1zM4.8 7.2h-1v1h1v-1z" style="fill:var(--color1, #4d5ae5)"/><path fill="#2e2f42" d="M24.7 14.2c-.3-.4-.7-.7-1.2-.7-.5-.1-1 0-1.3.3l-1.3 1-1.9 1.4-1.3-.6a7 7 0 0 0-2.9-13.2A7 7 0 0 0 9 13H6l-3.2 1.6-2 1a1.8 1.8 0 0 0 1 3.2c.3 0 .6 0 .8-.2L4 18l2.3-1.2h1.3l-5.4 5.4-1.3 1.3a1.7 1.7 0 0 0 0 2.4 1.7 1.7 0 0 0 2.3 0l1.3-1.3 1.8-1.3.9.9-1.8 1.7-1.3 1.4a1.7 1.7 0 0 0 0 2.3 1.7 1.7 0 0 0 2.3 0l3.5-3.4 1-1 5.2-5.7 3.5.5h.2l.1-.1 3.3-2.1 1.3-1.3c.7-.6.8-1.6.2-2.3zM2.1 17.8h-.5a.7.7 0 0 1-.2-1.2l1.3-.7.4 1.3-1 .6zm3.5-1.9-1.5.8-.5-1.2 2-1v1.4zm15.1-6.6c0 1-.2 1.8-.6 2.6l-4.2-2c0-.5-.3-1-.7-1.3l1.4-4.9c2.4.8 4.1 3 4.1 5.6zM9 9.3a5.9 5.9 0 0 1 6.7-5.8L14 8.3a1.9 1.9 0 1 0 0 3.7c.7 0 1.3-.4 1.6-1l3.9 1.8A5.9 5.9 0 0 1 8.9 9.3zm6 .8a.8.8 0 0 1-1.6 0 .8.8 0 0 1 1.6 0zm-12.4 15c-.3.3-.7.3-.9 0a.6.6 0 0 1 0-.8l1-1 .8.9-1 1zM5.7 29c-.3.2-.6.2-.9 0a.6.6 0 0 1 0-.9l1-1 .8 1-1 .9zm3.5-3.5-1.8 1.8-.9-.9 1.8-1.7.1-.2v-.5h-.1l-1.6-1.7h-.1l-.1-.1H6l-1.8 1.4-.9-1 2.4-2.3 4.4 4.3-1 1zm6.8-7a.6.6 0 0 0-.4 0v.1l-4.8 5.2-4.3-4.2 2.8-2.9a.5.5 0 0 0-.4-.9H6.7v-1.6H10a7 7 0 0 0 6.2 2l.1.1 2.5 1 .1.7.2 1-3-.5zm4 .2-.3-1.6 1.5-1 .9 1.2-2 1.4zm3.8-2.9-.9.8-.9-1.2.8-.6c.2-.2.4-.2.6-.2a.7.7 0 0 1 .4 1.2z" style="fill:var(--color2, #2e2f42)"/><path fill="#2e2f42" d="m13.6 18.5-2.1-2a.5.5 0 0 0-.8 0l-2.1 2a.5.5 0 0 0 0 .8l2.1 2.1a.5.5 0 0 0 .8 0l2.1-2.1a.5.5 0 0 0 0-.8zm-2.5 1.8-1.4-1.4 1.4-1.4 1.4 1.4-1.4 1.4zM17.2 5l-.3 1.1s1.7.5 1.7 2.2h1.1c0-2-1.7-3-2.5-3.2zM19.7 9.3h-1v1h1v-1z" style="fill:var(--color2, #2e2f42)"/></symbol><symbol id="icon-diagram-1" viewBox="0 0 32 32"><path fill="#4d5ae5" d="M15 15h1v4.8h-1V15zM19.2 17.1h1v2.7h-1V17zM10.7 18.7h1v1h-1v-1zM7.5 18.2h1v1.6h-1v-1.6z" style="fill:var(--color1, #4d5ae5)"/><path fill="#2e2f42" d="M1.6 28.3h25.6c.9 0 1.6-.7 1.6-1.6v-2.1c0-1-.7-1.6-1.6-1.6h-.5V9.7l3-2.9a1.6 1.6 0 1 0-.8-.8l-2.2 2.2V7c0-1-.8-1.6-1.6-1.6H3.7c-.9 0-1.6.7-1.6 1.6v16h-.5c-.9 0-1.6.7-1.6 1.6v2c0 1 .7 1.7 1.6 1.7zM30.4 4.8a.5.5 0 1 1 0 1.1.5.5 0 0 1 0-1zM3.2 7c0-.3.2-.6.5-.6h21.4c.2 0 .5.3.5.6v2.2l-1 1V8c0-.3-.3-.5-.6-.5H4.8c-.3 0-.5.2-.5.5v13.4c0 .3.2.5.5.5H24c.3 0 .5-.2.5-.5v-9.7l1-1V23H3.3V7zM8 13.9a1.6 1.6 0 1 0 1.1 2.7l1.9 1 .6-.1 4-4.5 3.8 3 .7-.1 3.4-3.2v8.1H5.3V8.6h18.2v2.6l-3.8 3.6-4-3a.5.5 0 0 0-.6.1l-4 4.5-1.5-.7v-.2c0-.9-.7-1.6-1.6-1.6zm.5 1.6a.5.5 0 1 1-1 0 .5.5 0 0 1 1 0zm3.2 8.5h5.4v.6c0 .3-.3.5-.6.5h-4.2a.5.5 0 0 1-.6-.5V24zm-10.6.6c0-.3.2-.6.5-.6h9v.6c0 .8.8 1.6 1.7 1.6h4.2c1 0 1.6-.8 1.6-1.6V24h9c.4 0 .6.3.6.6v2c0 .4-.2.6-.5.6H1.6a.5.5 0 0 1-.5-.5v-2.1z" style="fill:var(--color2, #2e2f42)"/></symbol><symbol id="icon-clock-1" viewBox="0 0 32 32"><path fill="#2e2f42" d="M31.3 15.3a15.3 15.3 0 1 0-19.8 14.6h.4l.2-.4 4-12.3a2 2 0 1 0-1-3.6l-5-5.1a.6.6 0 0 0-1 .9l5.2 5c-.4.9-.2 1.8.5 2.4l-3.7 11.7a14 14 0 1 1 10.6-.4l-.4-1.9a.6.6 0 0 0-1-.3l-3.9 3.4a.6.6 0 0 0 .2 1.1l5 1.6a.6.6 0 0 0 .8-.8l-.4-1.8c5.6-2.4 9.3-8 9.3-14.1zM16 14.7a.6.6 0 1 1 0 1.2.6.6 0 0 1 0-1.2zm2 14.8 2.3-2 .6 3-2.8-1z" style="fill:var(--color2, #2e2f42)"/><path fill="#4d5ae5" d="M15.4 3.2v1.3a.6.6 0 1 0 1.2 0V3.2a.6.6 0 0 0-1.2 0zM3.9 14.7a.6.6 0 0 0 0 1.2h1.3a.6.6 0 1 0 0-1.2H3.9zM28.1 16a.6.6 0 1 0 0-1.3h-1.3a.6.6 0 0 0 0 1.2h1.3z" style="fill:var(--color1, #4d5ae5)"/></symbol><symbol id="icon-antenna-1" viewBox="0 0 32 32"><path fill="#2e2f42" d="m30.8 22.1-8.5-8.5 1-4.6.7.1a2.2 2.2 0 1 0-2-1.4l-5 .6L9 .2a.5.5 0 0 0-.4-.2c-.1 0-.3 0-.4.2L6.7 1.7c-.2.2-.2.5 0 .7l.8.8A15 15 0 0 0 10.2 21v6.7H3.6a2.7 2.7 0 0 0-2.6 2.7v1c0 .4.2.6.5.6h24.5c.3 0 .6-.2.6-.5v-1.1c0-1.5-1.2-2.7-2.7-2.7h-6.4V25a15 15 0 0 0 10-1.5l1 .9.3.1.4-.1 1.5-1.5c.2-.3.2-.6 0-.8zM23.3 6.2a1 1 0 1 1 .7 1.9 1 1 0 0 1-.7-1.9zM22 9.7l-.6 3-1.1-1.2L22 9.7zm-.6-.9-1.9 2L18 9.2l3.4-.5zm2.6 20c.9 0 1.6.7 1.6 1.6v.5H2.1v-.5c0-.9.8-1.6 1.6-1.6H24zm-7.5-2.1v1h-5.3v-1h5.3zm-5.3-1.1v-4c0-1.3 1.2-2.4 2.7-2.4s2.6 1 2.6 2.3v4.1h-5.3zm6.4-1.7v-2.4c0-1.8-1.7-3.4-3.7-3.4-1.4 0-2.6.7-3.3 1.8-4-4.3-5-10.6-2.3-15.9L27 22.7a13.8 13.8 0 0 1-9.3 1.2zm11.3-.7L7.9 2l.7-.7 8 8 13 13.2-.7.7z" style="fill:var(--color2, #2e2f42)"/><path fill="#4d5ae5" d="M13.9 20.3a1.6 1.6 0 1 0 0 3.2 1.6 1.6 0 1 0 0-3.2zm.3 2-.3.1a.5.5 0 0 1 0-1 .5.5 0 0 1 .3.8z" style="fill:var(--color1, #4d5ae5)"/></symbol><symbol id="icon-linkedn" viewBox="0 0 32 32"><path fill="#4d5ae5" d="M32 16A16 16 0 0 1 4.7 27.3 16 16 0 0 1 16 0a16 16 0 0 1 16 16z" style="fill:var(--color1, #4d5ae5)"/><path fill="#f4f4fd" d="M25.6 25.6v-7c0-3.5-.7-6.1-4.8-6.1-2 0-3.2 1-3.7 2v-1.7h-4v12.8h4v-6.3c0-1.7.4-3.3 2.5-3.3 2 0 2 1.9 2 3.4v6.2h4zM6.7 12.8h4v12.8h-4V12.8zM8.7 6.4c-1.3 0-2.3 1-2.3 2.3a2.3 2.3 0 1 0 4.6 0c0-1.3-1-2.3-2.3-2.3z" style="fill:var(--color3, #f4f4fd)"/></symbol><symbol id="icon-facebook" viewBox="0 0 32 32"><path fill="#4d5ae5" d="M32 16A16 16 0 0 1 4.7 27.3 16 16 0 0 1 16 0a16 16 0 0 1 16 16z" style="fill:var(--color1, #4d5ae5)"/><path fill="#f4f4fd" d="M19.2 9.6H21v-3l-2.6-.2c-2.5 0-4.3 1.6-4.3 4.5v2.7h-2.7V17H14v8.6h3.5V17h2.6l.5-3.4h-3.1v-2.4c0-1 .2-1.6 1.6-1.6z" style="fill:var(--color3, #f4f4fd)"/></symbol><symbol id="icon-twitter" viewBox="0 0 32 32"><path fill="#4d5ae5" d="M32 16A16 16 0 0 1 4.7 27.3 16 16 0 0 1 16 0a16 16 0 0 1 16 16z" style="fill:var(--color1, #4d5ae5)"/><path fill="#f4f4fd" d="M25.6 10c-.7.4-1.5.6-2.3.7a4 4 0 0 0 1.8-2.2c-.8.4-1.6.8-2.5 1a4 4 0 0 0-6.8 3.5c-3.2-.1-6.1-1.7-8-4a4 4 0 0 0 1.1 5.2c-.6 0-1.2-.2-1.7-.5a4 4 0 0 0 3.1 3.9 4 4 0 0 1-1.8 0 4 4 0 0 0 3.7 2.8A8 8 0 0 1 6.4 22a11.1 11.1 0 0 0 17.2-10c.8-.5 1.5-1.2 2-2z" style="fill:var(--color3, #f4f4fd)"/></symbol><symbol id="icon-instagram" viewBox="0 0 32 32"><path fill="#4d5ae5" d="M32 16A16 16 0 0 1 4.7 27.3 16 16 0 0 1 16 0a16 16 0 0 1 16 16z" style="fill:var(--color1, #4d5ae5)"/><path fill="#f4f4fd" d="M25.6 12a7 7 0 0 0-.5-2.3c-.2-.6-.6-1.2-1-1.7-.6-.5-1.1-.9-1.8-1a7 7 0 0 0-2.3-.5 65.4 65.4 0 0 0-10.3.4c-.6.2-1.2.6-1.7 1.1-.4.5-.8 1-1 1.7a7 7 0 0 0-.5 2.3 65.4 65.4 0 0 0 .4 10.3L8 24c.5.5 1.1.9 1.7 1.1a7 7 0 0 0 2.4.4 70.5 70.5 0 0 0 10.2-.4 5 5 0 0 0 2.8-2.8 7 7 0 0 0 .5-2.3v-8zM23.9 20c0 1-.2 1.4-.4 1.8-.3.8-1 1.5-1.8 1.8-.3.1-.8.3-1.8.3a67.8 67.8 0 0 1-9.5-.3 3 3 0 0 1-1.1-.7 3 3 0 0 1-.7-1.1c-.2-.4-.3-.9-.4-1.8a67.8 67.8 0 0 1 .4-9.6c.1-.4.4-.7.7-1a3 3 0 0 1 1-.8c.4-.1 1-.3 1.9-.3a67.8 67.8 0 0 1 9.5.3l1.1.7c.3.4.6.7.7 1.1.2.4.3.9.4 1.8V20z" style="fill:var(--color3, #f4f4fd)"/><path fill="#f4f4fd" d="M16 11a5 5 0 1 0 0 10 5 5 0 0 0 0-10zm0 8.2a3.2 3.2 0 1 1 0-6.4 3.2 3.2 0 0 1 0 6.4zM22.3 10.9a1.2 1.2 0 1 1-2.3 0 1.2 1.2 0 0 1 2.3 0z" style="fill:var(--color3, #f4f4fd)"/></symbol></defs></svg>

<svg xmlns="http://www.w3.org/2000/svg" aria-hidden="true" style="position:absolute;width:0;height:0;overflow:hidden"><defs><symbol id="icon-email" viewBox="0 0 24 32"><path d="M20 8H4a2 2 0 0 0-2 2v12c0 1.1.9 2 2 2h16a2 2 0 0 0 2-2V10a2 2 0 0 0-2-2zm-.4 4.3-7 4.4a1 1 0 0 1-1.1 0l-7.1-4.4a.8.8 0 1 1 .9-1.4L12 15l6.7-4.2a.8.8 0 1 1 .9 1.4z"/></symbol><symbol id="icon-phone" viewBox="0 0 24 32"><path d="m19.6 18.5-2.4-.3a2 2 0 0 0-1.6.6l-1.8 1.7c-2.7-1.4-5-3.6-6.3-6.3l1.8-1.8c.4-.4.6-1 .5-1.6l-.3-2.4a2 2 0 0 0-1.9-1.7H5.9c-1 0-2 .9-1.9 2 .5 8.2 7.1 14.8 15.3 15.3 1.1 0 2-.8 2-2v-1.6a2 2 0 0 0-1.7-2z"/></symbol><symbol id="icon-person" viewBox="0 0 32 32"><path fill="#4d5ae5" d="M16 16a5.3 5.3 0 1 0 0-10.7A5.3 5.3 0 0 0 16 16zm0 2.7c-3.6 0-10.7 1.8-10.7 5.3v1.3c0 .8.6 1.4 1.4 1.4h18.6c.8 0 1.4-.6 1.4-1.4V24c0-3.5-7.1-5.3-10.7-5.3z" style="fill:var(--color1, #4d5ae5)"/></symbol><symbol id="icon-close" viewBox="0 0 32 32"><path fill="#e7e9fc" d="M32 16a16 16 0 1 1-32 0 16 16 0 0 1 32 0z" style="fill:var(--color2, #e7e9fc)"/><path fill="none" stroke="#000" stroke-width="1.3" d="M31.3 16A15.3 15.3 0 1 1 .7 16a15.3 15.3 0 0 1 30.6 0z" style="stroke:var(--color3, #000)"/><path fill="#2e2f42" d="m21.3 11.7-1-1-4.3 4.2-4.3-4.2-1 1 4.2 4.3-4.2 4.3 1 1 4.3-4.2 4.3 4.2 1-1-4.2-4.3 4.2-4.3z" style="fill:var(--color4, #2e2f42)"/></symbol></defs></svg>